<svg width="84" height="148" viewBox="0 0 84 148" fill="none" xmlns="http://www.w3.org/2000/svg">
<g clip-path="url(#clip0)">
<path d="M41.5017 8.20092C42.2657 8.20094 42.8851 7.58903 42.8851 6.8343L42.8852 1.36769C42.8852 0.612957 42.2659 0.00102454 41.5019 0.00100747C40.738 0.000990403 40.1186 0.612895 40.1186 1.36763L40.1185 6.83424C40.1184 7.58897 40.7376 8.20091 41.5017 8.20092Z" fill="#82B540"/>
<path d="M24.3957 6.26255L27.1622 10.9953C27.5398 11.6515 28.3843 11.8809 29.0485 11.5079C29.7127 11.1348 29.9449 10.3004 29.5673 9.64427C29.5644 9.63898 29.5613 9.63385 29.5581 9.62856L26.7916 4.89578C26.414 4.2396 25.5695 4.01016 24.9053 4.38324C24.2411 4.75632 24.0089 5.59066 24.3865 6.24683C24.3894 6.25213 24.3926 6.25742 24.3957 6.26255Z" fill="#82B540"/>
<path d="M13.241 18.258C13.2462 18.2611 13.2515 18.264 13.2569 18.2671L18.0473 21.0005C18.7064 21.3821 19.5539 21.1638 19.9402 20.5126C20.3265 19.8614 20.1055 19.0242 19.4464 18.6425C19.4412 18.6394 19.4358 18.6365 19.4305 18.6335L14.6401 15.9C13.9809 15.5184 13.1335 15.7367 12.7472 16.3879C12.3609 17.0389 12.5818 17.8763 13.241 18.258Z" fill="#82B540"/>
<path d="M16.6014 32.8002C16.6015 32.0455 15.9821 31.4335 15.2182 31.4335L9.68489 31.4334C8.92095 31.4334 8.30155 32.0453 8.30154 32.8C8.30152 33.5547 8.92089 34.1667 9.68482 34.1667L15.2181 34.1668C15.982 34.1668 16.6014 33.5549 16.6014 32.8002Z" fill="#82B540"/>
<path d="M18.0628 44.5905C18.0575 44.5935 18.0521 44.5966 18.0467 44.5997L13.2563 47.3329C12.5921 47.7058 12.3597 48.5401 12.7371 49.1963C13.1146 49.8525 13.9591 50.0821 14.6233 49.7092C14.6286 49.7061 14.634 49.703 14.6393 49.7L19.4298 46.9668C20.094 46.5938 20.3264 45.7595 19.949 45.1033C19.5715 44.4472 18.727 44.2176 18.0628 44.5905Z" fill="#82B540"/>
<path d="M69.7616 47.3435C69.7562 47.3404 69.7508 47.3373 69.7455 47.3343L64.9551 44.6009C64.2961 44.219 63.4485 44.4373 63.062 45.0884C62.6755 45.7394 62.8965 46.5768 63.5555 46.9586C63.5608 46.9617 63.5662 46.9648 63.5716 46.9679L68.3619 49.7013C69.0209 50.0831 69.8685 49.8648 70.255 49.2138C70.6415 48.5626 70.4205 47.7253 69.7616 47.3435Z" fill="#82B540"/>
<path d="M73.3176 31.4347L67.7843 31.4346C67.0203 31.4346 66.4009 32.0465 66.4009 32.8012C66.4009 33.556 67.0203 34.1679 67.7842 34.1679L73.3175 34.168C74.0814 34.1681 74.7008 33.5561 74.7008 32.8014C74.7009 32.0467 74.0815 31.4347 73.3176 31.4347Z" fill="#82B540"/>
<path d="M64.2653 21.1846C64.5081 21.1846 64.7467 21.1214 64.957 21.0015L69.7475 18.2683C70.4117 17.8952 70.6439 17.0608 70.2663 16.4047C69.8887 15.7485 69.0442 15.5191 68.38 15.8921C68.3746 15.895 68.3694 15.8981 68.3641 15.9012L63.5736 18.6344C62.912 19.0117 62.6853 19.8476 63.0672 20.5012C63.3145 20.924 63.7712 21.1846 64.2653 21.1846Z" fill="#82B540"/>
<path d="M53.9498 11.4967C53.9503 11.4971 53.9508 11.4974 53.9514 11.4976C54.6131 11.8746 55.4592 11.6504 55.8408 10.9964C55.8408 10.9963 55.841 10.9961 55.841 10.9961L58.6077 6.26343C58.9942 5.6124 58.7733 4.77498 58.1143 4.39315C57.4553 4.01133 56.6077 4.22963 56.2212 4.88066C56.2181 4.88596 56.215 4.89125 56.2119 4.89655L53.4451 9.62921C53.0626 10.2826 53.2886 11.1187 53.9498 11.4967Z" fill="#82B540"/>
<path d="M44.2673 54.6671C45.0313 54.6671 45.6507 54.0552 45.6507 53.3005L45.651 38.2673L48.4177 38.2674C51.4736 38.2675 53.951 35.82 53.9511 32.8009C53.9511 29.7818 51.4738 27.3342 48.4179 27.3342C45.362 27.3341 42.8846 29.7816 42.8845 32.8007L42.8844 35.534L40.1178 35.5339L40.1179 32.8006C40.1179 29.7815 37.6406 27.3339 34.5847 27.3339C31.5288 27.3338 29.0514 29.7812 29.0513 32.8003C29.0513 35.8195 31.5286 38.267 34.5845 38.2671L37.3511 38.2671L37.3508 53.3003C37.3508 54.0551 37.9701 54.667 38.7341 54.667C39.498 54.667 40.1174 54.0551 40.1174 53.3004L40.1178 38.2672L42.8844 38.2673L42.884 53.3004C42.884 54.0552 43.5032 54.6671 44.2673 54.6671ZM45.6511 32.8007C45.6512 31.2911 46.8898 30.0674 48.4178 30.0675C49.9459 30.0675 51.1844 31.2912 51.1844 32.8008C51.1844 34.3105 49.9458 35.5341 48.4177 35.5341L45.6511 35.534L45.6511 32.8007ZM37.3512 35.5338L34.5845 35.5338C33.0565 35.5337 31.8179 34.31 31.818 32.8004C31.818 31.2908 33.0566 30.0671 34.5847 30.0672C36.1127 30.0672 37.3513 31.2909 37.3512 32.8005L37.3512 35.5338Z" fill="#82B540"/>
<path d="M42.5765 10.9603C30.3668 10.3805 19.9931 19.6891 19.4063 31.7516C19.0702 38.6587 22.061 45.3157 27.4712 49.7031C28.4462 50.4577 29.0263 51.6054 29.0509 52.8287L29.0508 56.0335C29.058 57.7647 30.1652 59.305 31.8174 59.8821L31.8173 61.5002C31.8209 62.512 32.2055 63.4864 32.8962 64.2335C31.4576 65.7785 31.4575 68.1551 32.8961 69.7001C31.3582 71.3657 31.4781 73.9476 33.164 75.4671C33.9298 76.1572 34.9303 76.5379 35.9669 76.5335C36.7115 76.5528 37.3311 75.972 37.3505 75.2364C37.3581 74.9494 37.2716 74.6675 37.1041 74.4329C37.0603 74.3494 37.0085 74.2701 36.9491 74.1965C36.8354 74.0937 36.7055 74.0096 36.5646 73.9478C36.5245 73.9273 36.4844 73.9109 36.4429 73.8945C36.3028 73.8441 36.156 73.815 36.0071 73.8083C35.9933 73.8083 35.9808 73.8001 35.967 73.8001C35.2031 73.8001 34.5837 73.1882 34.5837 72.4335C34.5837 71.6787 35.2031 71.0668 35.9671 71.0668L41.5003 71.067C42.2643 71.067 42.8837 70.4551 42.8837 69.7003C42.8837 68.9456 42.2643 68.3337 41.5004 68.3337L35.9671 68.3335C35.2032 68.3335 34.5838 67.7216 34.5838 66.9669C34.5839 66.2121 35.2032 65.6002 35.9672 65.6002L41.5005 65.6004C42.2644 65.6004 42.8838 64.9885 42.8838 64.2337C42.8838 63.479 42.2645 62.8671 41.5005 62.867L35.9672 62.8669C35.2033 62.8669 34.5839 62.255 34.584 61.5002L34.584 60.1336L41.5006 60.1337C42.2645 60.1338 42.8839 59.5219 42.8839 58.7671C42.8839 58.0124 42.2646 57.4005 41.5006 57.4004L33.2007 57.4003C32.4368 57.4002 31.8174 56.7883 31.8174 56.0336L31.8175 52.8288C31.7949 50.7853 30.8424 48.8603 29.2239 47.5876C20.9608 40.8782 19.7678 28.8212 26.559 20.6577C30.4438 15.9879 36.3337 13.4064 42.445 13.6949C52.6655 14.2958 60.6936 22.5712 60.8677 32.685C60.9172 38.5021 58.2695 44.0218 53.681 47.6674C52.0746 48.9746 51.156 50.9318 51.184 52.9877L51.1839 56.034C51.1839 56.7887 50.5645 57.4006 49.8006 57.4006L45.6506 57.4005C44.8867 57.4005 44.2673 58.0124 44.2672 58.7672C44.2672 59.5219 44.8866 60.1338 45.6505 60.1338L48.4172 60.1339L48.4171 61.5005C48.4171 62.2553 47.7977 62.8672 47.0338 62.8672L45.6505 62.8671C44.8865 62.8671 44.2671 63.479 44.2671 64.2338C44.2671 64.9885 44.8865 65.6004 45.6504 65.6004L47.0337 65.6005C47.7977 65.6005 48.417 66.2124 48.417 66.9672C48.417 67.7219 47.7976 68.3338 47.0337 68.3338L45.6503 68.3338C44.8864 68.3337 44.267 68.9456 44.267 69.7004C44.267 70.4551 44.8864 71.067 45.6503 71.0671L47.0336 71.0671C47.7975 71.0671 48.4169 71.679 48.4169 72.4338C48.4169 73.1885 47.7975 73.8004 47.0335 73.8004L40.117 73.8002C39.353 73.8002 38.7336 74.4121 38.7336 75.1669C38.7336 75.9216 39.353 76.5335 40.1169 76.5335L45.4136 76.5337C44.6498 78.6685 42.2788 79.7874 40.1179 79.0328C39.4563 78.8018 38.8649 78.4087 38.3988 77.8906C37.8908 77.3268 37.0162 77.2766 36.4455 77.7785C35.8749 78.2804 35.8241 79.1444 36.3321 79.7082C38.8619 82.5248 43.2239 82.782 46.0748 80.2827C47.2523 79.2504 48.0372 77.8515 48.2992 76.3178C50.4657 75.6489 51.673 73.3715 50.9961 71.2312C50.8163 70.6625 50.5118 70.1399 50.1046 69.7005C51.5433 68.1555 51.5433 65.7789 50.1047 64.2339C50.7955 63.4869 51.1801 62.5124 51.1838 61.5006L51.1838 59.8825C52.836 59.3055 53.9432 57.7653 53.9505 56.0341L53.9506 52.9878C53.9321 51.76 54.4706 50.5883 55.4184 49.794C60.6654 45.6266 63.6926 39.3155 63.6343 32.6645C63.4347 21.1047 54.2583 11.6467 42.5765 10.9603Z" fill="#82B540"/>
</g>
<line x1="41.5317" y1="147.016" x2="41.5317" y2="81.9856" stroke="#82B540" stroke-width="3" stroke-dasharray="7 7"/>
<defs>
<clipPath id="clip0">
<rect width="83" height="82" fill="white" transform="translate(0.00183105)"/>
</clipPath>
</defs>
</svg>
