<svg width="378" height="340" viewBox="0 0 378 340" fill="none" xmlns="http://www.w3.org/2000/svg">
<path d="M272.091 294.193C270.136 290.416 267.774 287.031 265.127 283.784C261.631 279.573 257.646 275.775 253.215 272.595C244.375 266.205 234.018 262.083 223.374 260.415C218.062 259.527 212.678 259.12 207.316 259.233C201.951 259.221 196.62 259.829 191.327 260.536C180.756 262.139 170.442 265.008 160.407 268.545C170.55 265.331 180.928 262.804 191.464 261.551C201.982 260.388 212.692 260.309 223.004 262.428C233.326 264.387 243.151 268.701 251.371 275.052C255.492 278.213 259.154 281.941 262.327 286.023C264.298 288.575 266.09 291.351 267.606 294.193H272.091Z" fill="#37692C"/>
<path d="M105.336 294.193C107.291 290.416 109.654 287.031 112.302 283.784C115.796 279.573 119.782 275.775 124.212 272.595C133.052 266.205 143.41 262.083 154.052 260.415C159.367 259.527 164.75 259.12 170.111 259.233C175.476 259.221 180.808 259.829 186.1 260.536C196.671 262.139 206.986 265.008 217.019 268.545C206.878 265.331 196.499 262.804 185.963 261.551C175.446 260.388 164.735 260.309 154.424 262.428C144.102 264.387 134.276 268.701 126.056 275.052C121.935 278.213 118.274 281.941 115.102 286.023C113.131 288.575 111.338 291.351 109.822 294.193H105.336" fill="#37692C"/>
<path d="M352.295 275.357C338.567 259.852 306.44 262.903 268.788 265.835C231.135 268.765 230.763 262.156 230.763 262.156L191.438 264.628L152.114 262.156C152.114 262.156 151.74 268.765 114.088 265.835C76.4362 262.903 44.3095 259.852 30.5815 275.357C16.8549 290.861 33.1922 319.567 67.4895 328.515C84.8522 333.043 124.57 335.088 159.559 336.004V336.715C159.559 336.715 172.644 336.796 191.438 336.587C210.232 336.796 211.947 333.547 211.947 333.547L224.622 334.665C259.612 333.749 298.024 333.043 315.387 328.515C349.684 319.567 366.02 290.861 352.295 275.357Z" fill="#141B1E"/>
<path d="M180.943 299.963C180.943 299.963 192.456 301.511 201.746 293.733C211.036 285.956 212.887 285.068 218.016 289.4C221.356 292.224 230.174 290.253 239.68 287.013C249.186 283.772 266.482 280.668 268.858 285.421C271.235 290.175 264.551 290.463 264.551 290.463C270.168 290.456 270.115 294.615 268.008 296.236C269.466 299.313 268.17 301.381 265.252 302.292C269.466 305.633 264.282 307.579 262.338 307.901C263.147 311.305 261.851 312.6 257.963 313.735C254.074 314.868 244.188 312.439 222.963 315.841C201.738 319.244 180.943 323.295 180.943 323.295V299.963" fill="#F7AC5C"/>
<path d="M268.858 285.421C268.411 284.528 267.436 283.912 266.084 283.523C249.006 292.672 234.367 304.707 211.594 303.648C211.291 303.763 210.323 308.785 209.051 311.275C198.986 313.512 189.906 310.828 180.943 307.553V323.295C180.943 323.295 201.738 319.244 222.963 315.841C244.188 312.439 254.074 314.868 257.963 313.735C261.851 312.6 263.147 311.305 262.338 307.901C264.282 307.579 269.466 305.633 265.252 302.292C268.17 301.381 269.466 299.313 268.008 296.236C270.115 294.615 270.168 290.456 264.551 290.463C264.551 290.463 271.235 290.175 268.858 285.421" fill="#EF9147"/>
<path d="M72.3363 262.156C72.3363 262.156 96.5456 261.959 117.816 273.528C141.994 286.675 171.747 295.46 184.919 293.969C187.404 307.637 184.919 322.799 184.919 322.799C184.919 322.799 167.403 329.639 132.355 329.751C97.3069 329.863 47.8296 326.584 32.3429 306.3C16.8549 286.016 26.8536 273.588 36.5469 268.619C46.2402 263.647 62.2096 261.22 72.3363 262.156" fill="#173448"/>
<path d="M120.074 306.191C135.327 294.751 153.123 313.816 169.647 306.191C175.69 304.176 180.935 306.947 186.014 308.817C186.074 304.217 185.832 298.993 184.919 293.969C171.747 295.46 141.994 286.675 117.816 273.527C96.5456 261.959 72.3363 262.156 72.3363 262.156C62.2096 261.22 46.2403 263.647 36.5469 268.619C26.8536 273.588 16.8549 286.016 32.3416 306.3C45.6456 323.724 84.0243 328.596 116.799 329.555C113.366 320.975 112.618 310.851 120.074 306.191" fill="#142A33"/>
<path d="M185.282 296.227C180.026 296.908 165.491 297.656 143.335 290.047C115.058 280.337 112.616 272.199 87.1869 268.131C61.7576 264.061 57.7016 264.48 52.5002 265.837C47.3002 267.195 45.4856 275.691 51.5856 275.389C51.5856 275.389 68.6736 274.087 97.3589 283.112C126.043 292.136 147.607 301.731 163.882 303.139C174.791 304.083 182.214 303.76 185.935 303.445C185.83 301.081 185.627 298.645 185.282 296.227Z" fill="#173640"/>
<path d="M227.418 309.805C227.418 309.805 201.571 317.759 189.89 313.783C178.208 309.805 179.7 306.824 172.742 309.805C165.782 312.789 155.096 311.608 147.639 308.595C140.184 305.581 140.93 307.807 136.828 308.745C132.728 309.683 125.272 308.192 123.595 313.596C121.916 319.001 123.284 321.612 125.894 321.239C128.503 320.865 134.206 318.525 134.968 321.271C130.743 321.857 124.918 321.984 122.858 321.984C120.798 321.984 120.426 323.475 121.42 325.34C122.414 327.203 124.775 326.705 128.503 326.209C132.231 325.712 133.971 326.003 133.224 326.665C132.479 327.328 130.119 327.389 128.503 327.203C126.887 327.017 121.731 325.899 121.731 328.384C121.731 330.868 123.222 331.304 125.831 330.745C128.44 330.187 131.112 329.005 132.355 329.751C133.598 330.496 132.603 331.053 131.423 330.961C130.242 330.868 125.831 330.061 124.838 331.365C123.843 332.671 124.03 334.1 125.707 334.472C127.384 334.845 130.367 333.54 131.983 333.417C133.598 333.292 134.467 334.544 133.598 334.539C132.728 334.535 129.807 333.975 128.566 335.405C127.323 336.833 129.435 337.765 131.05 337.765C132.666 337.765 140.091 335.871 144.004 336.709C147.919 337.548 161.434 341.245 176.594 338.76C191.754 336.275 193.68 338.573 208.964 336.524C224.248 334.472 243.262 330.187 243.262 330.187L227.418 309.805" fill="#F7AC5C"/>
<path d="M243.262 330.141L227.418 309.763C227.418 309.763 218.57 312.483 208.887 313.945C204.483 321.343 204.248 329.239 205.315 336.915C206.447 336.797 207.654 336.655 208.964 336.479C224.248 334.428 243.262 330.141 243.262 330.141Z" fill="#EF9147"/>
<path d="M310.923 268.121C310.923 268.121 291.91 269.737 267.68 282.784C243.448 295.832 227.766 308.569 214.594 307.079C212.108 320.748 217.063 336.731 217.063 336.731C217.063 336.731 214.627 335.111 249.675 335.111C308.188 335.112 337.742 328.237 353.23 307.953C368.718 287.669 355.815 275.236 346.123 270.264C336.43 265.295 321.05 267.185 310.923 268.121" fill="#142A33"/>
<path d="M324.698 282.981C346.059 277.896 325.003 266.096 304.659 271.793C284.316 277.488 277.806 280.54 257.463 293.763C239.14 305.673 224.794 310.139 214.242 309.425C213.615 314.611 213.926 319.969 214.532 324.555C220.854 323.293 234.474 319.893 248.104 312.073C266.719 301.392 303.338 288.068 324.698 282.981Z" fill="#173640"/>
<path d="M368.748 254.369C367.708 257.369 363.535 258.791 360.207 258.516C356.88 258.243 352.872 256.588 353.555 252.589C354.236 248.589 358.752 248.345 361.936 248.252C365.116 248.161 368.931 248.829 371.718 247.127C370.184 249.232 369.464 252.304 368.748 254.369V254.369ZM17.2189 258.516C13.8922 258.791 9.7189 257.369 8.6789 254.369C7.9629 252.304 7.2429 249.232 5.7109 247.127C8.4949 248.829 12.3109 248.161 15.4909 248.252C18.6736 248.345 23.1909 248.589 23.8736 252.589C24.5549 256.588 20.5469 258.243 17.2189 258.516V258.516ZM374.368 245.044C373.886 245.208 373.454 245.452 373.058 245.747C373.924 244.08 372.803 242.211 370.591 242.708C367.716 243.353 365.219 241.56 356.184 239.933C347.148 238.308 343.236 242.956 343.236 242.956C343.236 242.956 338.355 247.224 331.066 242.317C328.19 239.656 324.924 236.468 321.264 232.733C309.086 220.305 300.923 208.623 293.467 203.031C286.012 197.439 280.792 191.473 275.946 179.172C271.099 166.869 269.236 157.177 262.152 140.389C255.07 123.601 245.004 121.389 228.974 115.424C212.944 109.46 206.607 103.123 206.607 103.123L193.312 101.947V101.135L188.714 101.54L184.115 101.135V101.947L170.822 103.123C170.822 103.123 164.483 109.46 148.454 115.424C132.423 121.389 122.358 123.601 115.275 140.389C108.191 157.177 106.327 166.869 101.482 179.172C96.6349 191.473 91.4162 197.439 83.9602 203.031C76.5042 208.623 68.3402 220.305 56.1629 232.733C52.5029 236.468 49.2376 239.656 46.3616 242.317C39.0722 247.224 34.1922 242.956 34.1922 242.956C34.1922 242.956 30.2789 238.308 21.2429 239.933C12.2082 241.56 9.71091 243.353 6.83625 242.708C4.62425 242.211 3.50291 244.08 4.36958 245.747C3.97358 245.452 3.54157 245.208 3.0589 245.044C-0.477098 243.839 -0.80242 245.76 1.33758 249.001C3.47758 252.243 2.77358 256.531 6.24958 261.271C9.72558 266.011 14.2136 265.905 14.2136 265.905C14.2136 265.905 13.3256 271.18 16.2002 271.824C19.0749 272.471 19.9362 272.223 19.9362 272.223C19.9362 272.223 19.6696 276.572 21.7229 276.84C23.7762 277.108 25.9242 275.344 25.9242 275.344C25.9242 275.344 25.4256 277.853 27.3002 278.139C29.1749 278.425 32.0016 277.309 34.3949 274.945C35.7789 273.58 40.9056 269.408 43.0976 265.463C44.7642 265.028 52.7856 262.977 72.0309 254.399C92.6589 245.203 98.8842 233.953 98.8842 233.953C98.8842 233.953 113.783 210.984 121.986 202.036C130.186 193.089 132.175 185.385 135.158 182.652C138.139 179.917 144.602 199.8 144.352 208.748C144.104 217.693 140.874 221.173 142.364 226.393C143.855 231.612 143.359 243.293 141.619 248.263C139.879 253.235 133.168 268.641 133.168 268.641H184.115H193.312H244.258C244.258 268.641 237.548 253.235 235.808 248.263C234.07 243.293 233.572 231.612 235.063 226.393C236.554 221.173 233.323 217.693 233.075 208.748C232.826 199.8 239.288 179.917 242.27 182.652C245.252 185.385 247.242 193.089 255.443 202.036C263.643 210.984 278.543 233.953 278.543 233.953C278.543 233.953 284.768 245.203 305.396 254.399C324.642 262.977 332.796 265.359 334.463 265.792C336.656 269.736 341.334 274.003 342.398 275.148C344.684 277.616 348.251 278.425 350.127 278.139C352.002 277.853 351.504 275.344 351.504 275.344C351.504 275.344 353.651 277.108 355.704 276.84C357.758 276.572 357.491 272.223 357.491 272.223C357.491 272.223 358.352 272.471 361.227 271.824C364.102 271.18 363.214 265.905 363.214 265.905C363.214 265.905 367.702 266.011 371.178 261.271C374.654 256.531 373.95 252.243 376.088 249.001C378.23 245.76 377.904 243.839 374.368 245.044" fill="#F7AC5C"/>
<path d="M198.975 130.507C198.975 130.507 213.164 125.472 226.896 128.371C225.676 131.421 225.676 131.421 225.676 131.421C225.676 131.421 213.164 128.675 198.975 130.507Z" fill="#EF9147"/>
<path d="M181.428 130.507C181.428 130.507 167.239 125.472 153.507 128.371C154.727 131.421 154.727 131.421 154.727 131.421C154.727 131.421 167.239 128.675 181.428 130.507" fill="#EF9147"/>
<path d="M172.223 66.5266C172.223 66.5266 173.036 92.0559 169.375 105.179C180.055 116.164 210.723 106.093 210.723 106.093C210.723 106.093 204.62 87.7839 205.231 67.7972C199.432 54.9799 172.223 66.5266 172.223 66.5266" fill="#F7AC5C"/>
<path d="M193.178 100.499C197.451 98.3626 203.247 93.0746 206.362 86.4466C205.562 80.8106 205.028 74.3986 205.231 67.7973C199.432 54.98 172.223 66.5266 172.223 66.5266C172.223 66.5266 172.524 76.036 171.928 86.4293C177.286 93.5346 184.276 103.169 193.178 100.499Z" fill="#EF8D40"/>
<path d="M244.258 268.641C244.258 268.641 237.548 253.233 235.808 248.263C234.07 243.293 233.572 231.612 235.063 226.392C236.554 221.173 233.323 217.693 233.075 208.748C232.87 201.385 237.207 186.631 240.412 183.152C230.076 169.776 227.175 129.499 229.767 115.717C229.503 115.62 229.242 115.524 228.974 115.424C225.382 114.088 222.302 112.736 219.646 111.437C219.776 115.267 220.108 138.109 210.063 148.713C199.076 160.309 171.003 156.037 166.527 141.389C162.408 127.912 160.531 112.549 160.258 110.181C157.778 111.495 154.836 112.895 151.354 114.3C151.78 117.336 153.61 132.239 151.436 150.903C148.994 171.857 135.158 182.652 135.158 182.652C138.139 179.917 144.602 199.8 144.352 208.748C144.104 217.693 140.874 221.173 142.364 226.392C143.855 231.612 143.358 243.293 141.619 248.263C139.879 253.233 133.168 268.641 133.168 268.641H184.115H193.312H244.258" fill="#EF9147"/>
<path d="M160.22 109.857C160.22 109.857 162.051 126.743 166.527 141.389C171.002 156.037 199.076 160.309 210.063 148.713C221.047 137.117 219.624 110.875 219.624 110.875C219.624 110.875 227.558 112.909 229.796 115.555C227.151 129.184 226.947 180.653 237.323 194.08C240.576 200.793 234.271 205.472 236.304 210.355C238.34 215.237 237.932 219.103 239.154 226.631C240.374 234.156 238.34 240.464 241.391 248.193C244.443 255.924 252.776 265.163 255.222 266.545C248.307 275.861 238.644 281.853 198.364 282.981C158.084 284.109 133.367 277.825 125.23 266.976C133.978 257.349 136.215 253.28 135.198 245.956C134.18 238.633 134.384 232.733 136.622 227.851C138.859 222.968 140.08 208.524 139.063 202.828C138.046 197.132 137.436 192.045 137.436 192.045C137.436 192.045 150.455 174.143 152.896 153.189C155.338 132.236 151.27 113.723 151.27 113.723C151.27 113.723 156.152 109.857 160.22 109.857" fill="#82B540"/>
<path d="M236.659 211.259C236.659 211.259 233.519 206.335 224.092 201.108C210.554 193.603 207.144 182.629 197.611 179.547C188.078 176.464 181.299 174.452 179.604 176.517C177.908 178.583 181.087 181.829 192.315 186.349C203.543 190.869 211.806 198.284 219.855 205.487C227.907 212.691 235.908 217.34 239.38 228.357C241.051 224.649 236.659 211.259 236.659 211.259" fill="#3C9D27"/>
<path d="M240.96 246.163C240.96 246.163 240.618 239.369 232.355 231.009C224.092 222.647 215.831 224.977 204.814 218.197C193.798 211.419 190.146 209.088 185.935 209.088C181.723 209.088 176.638 205.912 176.638 205.912C176.638 205.912 180.612 210.62 185.935 213.985C191.255 217.351 198.459 222.012 204.814 226.036C211.17 230.063 219 226.453 225.992 231.009C232.983 235.564 243.534 252.644 244.434 254.028C241.391 248.193 240.96 246.163 240.96 246.163Z" fill="#3C9D27"/>
<path d="M231.931 258.976C231.931 258.976 225.158 255.984 216.895 247.623C208.632 239.261 200.371 241.591 189.354 234.812C178.338 228.033 174.686 225.703 170.474 225.703C166.263 225.703 161.178 222.525 161.178 222.525C161.178 222.525 165.152 227.235 170.474 230.6C175.796 233.965 182.999 238.627 189.354 242.651C195.71 246.676 203.54 243.068 210.531 247.623C217.522 252.177 227.271 269.679 255.222 266.545C249.515 264.9 231.931 258.976 231.931 258.976Z" fill="#3C9D27"/>
<path d="M142.278 261.116C142.278 261.116 152.063 269.788 166.47 270.687C180.875 271.584 187.443 267.027 196.975 268.14C206.51 269.253 210.782 272.009 221.039 273.703C231.296 275.399 244.028 270.615 254.186 266.651C246.988 266.88 242.948 269.823 231.296 269.857C219.643 269.891 215.25 268.805 204.1 264.9C192.951 260.992 194.222 263.789 175.579 265.463C156.936 267.136 151.356 265.359 142.278 261.116" fill="#3C9D27"/>
<path d="M215.398 56.4119C215.398 56.4119 218.954 48.6759 220.944 52.3746C222.936 56.0733 219.79 67.0559 217.175 67.6719C214.562 68.2879 214.686 64.8919 214.686 64.8919L215.398 56.4119Z" fill="#F7AC5C"/>
<path d="M164.01 56.4119C164.01 56.4119 160.454 48.6759 158.462 52.3746C156.47 56.0733 159.618 67.0559 162.231 67.6719C164.846 68.2879 164.72 64.8919 164.72 64.8919L164.01 56.4119Z" fill="#F7AC5C"/>
<path d="M184.244 91.54C184.244 91.54 192.007 94.576 198.09 91.54C204.174 88.504 212.315 79.7813 214.97 70.4879C217.626 61.1946 216.678 53.9866 215.918 45.4519C215.159 36.9173 207.952 21.176 192.02 20.0373C176.09 18.9 167.554 27.4346 165.658 35.2106C163.762 42.9866 162.812 45.0733 162.812 48.2973C162.812 51.5213 162.812 63.66 164.33 70.1093C165.847 76.5573 179.503 88.8853 184.244 91.54" fill="#F7AC5C"/>
<path d="M202.224 65.1671C196.249 63.3738 189.361 62.4085 182.309 64.0205C170.377 66.7485 167.516 63.3565 167.516 63.3565C167.516 63.3565 165.335 59.5631 165.715 56.9804C166.093 54.3978 164.196 45.2431 167.611 43.5365C170.592 42.0458 170.897 34.9151 170.927 33.1325C172.291 31.6165 174.727 29.7138 177.947 30.2605C182.973 31.1138 187.999 34.6218 194.448 31.4925C200.897 28.3645 207.061 29.5005 207.44 32.4885C207.819 35.4765 207.535 39.6485 210.569 41.2605C212.589 42.3338 213.6 44.6791 213.96 47.4325C213.953 47.6538 213.957 47.8978 213.983 48.1831C214.361 52.3564 213.509 60.6058 212.276 62.7871C211.043 64.9685 208.199 66.9605 202.224 65.1671V65.1671ZM219.955 23.4791C217.729 15.9404 212.467 15.7991 211.612 15.7991C208.911 8.25913 195.823 0.293777 187.004 0.00844363C178.184 -0.275556 183.589 6.69513 183.589 6.69513C170.645 0.436463 167.801 8.54447 168.796 9.3978C157.559 10.3925 156.989 15.2138 159.835 17.3551C152.296 17.5058 151.443 23.9951 156.848 26.4404C162.252 28.8858 161.528 29.4071 161.619 31.4925C161.619 31.4925 161.921 36.2351 161.619 41.2605C161.316 46.2871 163.219 51.7431 163.153 56.2444C163.088 60.7458 162.881 68.0978 165.063 71.9858C167.244 75.8738 166.852 75.9684 170.929 80.6151C175.008 85.2618 176.62 88.2018 180.413 90.7618C184.207 93.3231 195.396 93.2284 200.043 91.1418C204.691 89.0564 204.699 86.0791 208.579 82.7965C212.456 79.5151 214.361 75.2098 216.164 66.6751C217.333 61.1404 217.529 55.3938 217.323 51.0378C217.323 51.0378 218.435 49.1311 219.955 48.8005C221.475 40.8818 222.18 31.0191 219.955 23.4791" fill="#141B1E"/>
<path d="M35.2616 263.697C34.3616 263.988 33.5562 264.373 32.8162 264.811C33.2282 263.004 32.8682 259.34 29.2976 260.58C28.9922 260.679 28.7136 260.804 28.4269 260.921C29.1136 259.147 29.2936 255.859 25.7269 256.331C17.4642 257.247 14.2136 265.905 14.2136 265.905C14.8842 264.391 19.0869 259.993 21.5202 258.569C23.9536 257.144 26.6642 256.789 27.4789 258.468C27.9362 259.412 27.6842 260.568 27.3776 261.411C21.1629 264.687 19.9442 272.272 19.9442 272.272C20.2976 270.655 23.5296 265.501 25.6282 263.617C27.7256 261.733 30.3096 260.84 31.4442 262.32C32.1269 263.212 32.0656 264.513 31.9082 265.412C26.9362 268.997 25.9082 275.389 25.9082 275.389C26.2616 273.772 29.4936 268.62 31.5909 266.736C33.6882 264.852 36.2722 263.957 37.4082 265.437C38.5429 266.917 37.2242 269.352 37.2242 269.352C37.2242 269.352 35.3749 272.212 32.5896 273.852C34.4962 273.547 38.5189 270.94 38.8536 267.532C38.8522 267.532 38.8522 267.532 38.8522 267.532C39.1256 265.641 38.5882 262.541 35.2616 263.697" fill="#EF9147"/>
<path d="M43.0976 265.463C43.0976 265.463 45.2536 258.671 40.9056 252.491C44.4909 254.78 46.8163 261.268 43.0976 265.463" fill="#EF9147"/>
<path d="M342.146 263.697C343.046 263.988 343.852 264.373 344.591 264.811C344.18 263.004 344.539 259.34 348.11 260.58C348.415 260.679 348.694 260.804 348.98 260.921C348.295 259.147 348.115 255.859 351.683 256.331C359.944 257.247 363.194 265.905 363.194 265.905C362.523 264.391 358.322 259.993 355.888 258.569C353.455 257.144 350.743 256.789 349.93 258.468C349.472 259.412 349.724 260.568 350.03 261.411C356.244 264.687 357.464 272.272 357.464 272.272C357.111 270.655 353.878 265.501 351.78 263.617C349.684 261.733 347.099 260.84 345.964 262.32C345.282 263.212 345.344 264.513 345.499 265.412C350.471 268.997 351.5 275.389 351.5 275.389C351.147 273.772 347.914 268.62 345.816 266.736C343.719 264.852 341.135 263.957 340 265.437C338.866 266.917 340.184 269.352 340.184 269.352C340.184 269.352 342.034 272.212 344.818 273.852C342.911 273.547 338.89 270.94 338.555 267.532C338.555 267.532 338.556 267.532 338.558 267.532C338.283 265.641 338.82 262.541 342.146 263.697" fill="#EF9147"/>
<path d="M334.31 265.463C334.31 265.463 332.155 258.671 336.503 252.491C332.918 254.78 330.592 261.268 334.31 265.463" fill="#EF9147"/>
</svg>
